<svg width="26" height="27" viewBox="0 0 26 27" fill="none" xmlns="http://www.w3.org/2000/svg">
<path d="M13.3479 1.40037C13.3479 1.12271 13.1229 0.897701 12.8452 0.897701C12.5676 0.897701 12.3426 1.12269 12.3426 1.40035L12.3426 11.5239C12.3426 11.8016 12.5676 12.0266 12.8452 12.0266C13.1229 12.0266 13.3479 11.8016 13.3479 11.5239L13.3479 1.40037Z" fill="white"/>
<path d="M13.3474 15.5444C13.3474 15.2668 13.1224 15.0417 12.8447 15.0417C12.5671 15.0417 12.3421 15.2668 12.3421 15.5444L12.3421 25.668C12.3421 25.9456 12.5671 26.1706 12.8447 26.1706C13.1224 26.1706 13.3474 25.9456 13.3474 25.668L13.3474 15.5444Z" fill="white"/>
<path d="M14.8542 14.0373L24.9778 14.0373C25.2555 14.0373 25.4805 13.8123 25.4805 13.5347C25.4805 13.257 25.2555 13.032 24.9778 13.032L14.8542 13.032C14.5766 13.032 14.3516 13.257 14.3516 13.5347C14.3516 13.8123 14.5766 14.0373 14.8542 14.0373Z" fill="white"/>
<path d="M10.8347 13.032L0.711175 13.032C0.433511 13.032 0.208504 13.257 0.208504 13.5347C0.208504 13.8123 0.433511 14.0373 0.711175 14.0373L10.8347 14.0373C11.1124 14.0373 11.3374 13.8123 11.3374 13.5347C11.3374 13.257 11.1124 13.032 10.8347 13.032Z" fill="white"/>
</svg>
