<svg width="189" height="48" viewBox="0 0 189 48" fill="none" xmlns="http://www.w3.org/2000/svg">
<g clip-path="url(#clip0_8150_48826)">
<path d="M18.818 8.74277C20.1882 9.02435 21.2242 9.51294 21.9243 10.2085C22.6259 10.8874 22.9767 11.8645 22.9767 13.14V13.239C22.9767 14.5967 22.6184 15.6484 21.9003 16.3927C21.1822 17.1385 20.1882 17.6591 18.9154 17.9574C17.6426 18.239 16.0444 18.3881 14.121 18.4049H13.094L0.494708 18.3805V0H15.2469C17.1389 0.0167428 18.6471 0.414003 19.773 1.19178C20.8989 1.96956 21.4611 3.07154 21.4611 4.49467V4.59361C21.4611 5.66971 21.2407 6.54794 20.7999 7.22679C20.3591 7.90563 19.698 8.41096 18.818 8.74277ZM16.4927 5.31507C16.4927 4.70167 16.3548 4.26332 16.0774 3.99848C15.8001 3.71689 15.4328 3.54338 14.977 3.47641C14.5362 3.40944 13.9006 3.37747 13.0685 3.37747H5.31315V7.25266L11.184 7.30289H13.0685C13.9486 7.30289 14.5932 7.27854 15.001 7.22831C15.4088 7.17808 15.7596 7.0137 16.0534 6.73211C16.3458 6.44901 16.4927 5.97717 16.4927 5.31507ZM13.8751 14.7275C14.8706 14.7275 15.6127 14.6941 16.1014 14.6286C16.5901 14.5464 16.9829 14.347 17.2753 14.032C17.5691 13.7169 17.716 13.2116 17.716 12.5175C17.716 11.8234 17.5691 11.3501 17.2753 11.0517C16.9814 10.7367 16.5901 10.5464 16.1014 10.481C15.6127 10.414 14.8706 10.382 13.8751 10.382H5.31315V14.6788C8.85276 14.6788 11.3729 14.6956 12.8721 14.7291H13.8751V14.7275Z" fill="white"/>
<path d="M29.218 18.379H24.4475V0H29.218V18.379Z" fill="white"/>
<path d="M39.9718 4.27094C41.6839 4.27094 43.2251 4.58601 44.5953 5.21462C45.9656 5.84324 47.033 6.72147 47.8006 7.8478C48.5832 8.95739 48.9745 10.207 48.9745 11.5982C48.9745 12.9894 48.5832 14.2222 47.8006 15.3486C47.0345 16.4582 45.9656 17.3273 44.5953 17.9559C43.2251 18.5845 41.6839 18.8996 39.9718 18.8996C38.2597 18.8996 36.783 18.5845 35.3482 17.9559C33.9135 17.3105 32.7636 16.4323 31.8986 15.3227C31.05 14.1964 30.6258 12.9543 30.6258 11.5967C30.6258 10.239 31.05 8.98022 31.8986 7.87063C32.7636 6.7443 33.9135 5.86759 35.3482 5.23745C36.7845 4.59362 38.3257 4.27094 39.9718 4.27094ZM39.9718 15.7717C41.1457 15.7717 42.1486 15.4155 42.9807 14.7032C43.8127 13.9909 44.228 12.9559 44.228 11.5982C44.228 10.2405 43.8127 9.18113 42.9807 8.46881C42.1486 7.75648 41.1457 7.40031 39.9718 7.40031C39.2222 7.40031 38.4951 7.55709 37.7949 7.87215C37.1098 8.17048 36.5476 8.63319 36.1068 9.26333C35.6661 9.89194 35.4457 10.6712 35.4457 11.5982C35.4457 12.5251 35.6661 13.2785 36.1068 13.9087C36.5476 14.5373 37.1098 15.0091 37.7949 15.3242C38.4966 15.6225 39.2222 15.7717 39.9718 15.7717Z" fill="white"/>
<path d="M49.835 11.6728C49.835 10.2816 50.2353 9.03197 51.0344 7.92238C51.8335 6.79605 52.9264 5.91934 54.3131 5.2892C55.6999 4.66059 57.2321 4.34552 58.9127 4.34552C61.3264 4.34552 63.2589 4.88433 64.7101 5.96043C66.1778 7.01979 67.1403 8.45206 67.5976 10.2572H62.8031C62.6082 9.44597 62.1585 8.78387 61.4568 8.27094C60.7717 7.74125 59.9322 7.47641 58.9367 7.47641C57.6324 7.47641 56.5964 7.86606 55.8303 8.64384C55.0642 9.40488 54.6804 10.4155 54.6804 11.6743C54.6804 12.4201 54.8439 13.1142 55.1692 13.761C55.496 14.3897 55.9683 14.9041 56.5874 15.3014C57.2231 15.6819 57.9742 15.8722 58.8377 15.8722C59.8647 15.8722 60.7297 15.6149 61.4314 15.102C62.1495 14.5723 62.5977 13.9102 62.7761 13.1157H67.5706C67.4072 14.175 66.9259 15.1613 66.1269 16.0715C65.3278 16.9665 64.2918 17.6773 63.0205 18.207C61.7642 18.7367 60.3939 19.0015 58.9112 19.0015C57.2636 19.0015 55.7464 18.6865 54.3611 18.0578C52.9744 17.4125 51.8739 16.5343 51.0584 15.4247C50.2428 14.2983 49.835 13.0472 49.835 11.6728Z" fill="white"/>
<path d="M78.2824 10.9026L85.696 18.379H80.02L73.464 11.9209V18.379H68.6935V0H73.464V9.93455L79.0665 4.84323H84.8399L78.2824 10.9026Z" fill="white"/>
<path d="M84.0963 11.6728C84.0963 10.2816 84.4951 9.03197 85.2957 7.92238C86.0948 6.79605 87.1877 5.91934 88.5745 5.2892C89.9612 4.66059 91.4934 4.34552 93.174 4.34552C95.5877 4.34552 97.5202 4.88433 98.9714 5.96043C100.439 7.01979 101.402 8.45206 101.859 10.2572H97.0644C96.868 9.44597 96.4198 8.78387 95.7197 8.27094C95.0345 7.74125 94.195 7.47641 93.1995 7.47641C91.8952 7.47641 90.8592 7.86606 90.0931 8.64384C89.3271 9.40488 88.9433 10.4155 88.9433 11.6743C88.9433 12.4201 89.1067 13.1142 89.432 13.761C89.7588 14.3897 90.2311 14.9041 90.8518 15.3014C91.4874 15.6819 92.2385 15.8722 93.1021 15.8722C94.129 15.8722 94.994 15.6149 95.6957 15.102C96.4138 14.5723 96.8621 13.9102 97.0405 13.1157H101.835C101.672 14.175 101.19 15.1613 100.391 16.0715C99.5921 16.9665 98.5562 17.6773 97.2848 18.207C96.0285 18.7367 94.6582 19.0015 93.1755 19.0015C91.5279 19.0015 90.0107 18.6865 88.6254 18.0578C87.2387 17.4125 86.1383 16.5343 85.3227 15.4247C84.5041 14.2983 84.0963 13.0472 84.0963 11.6728Z" fill="white"/>
<path d="M113.521 4.39574C115.332 4.39574 116.816 5.05784 117.974 6.38204C119.148 7.70624 119.735 9.84323 119.735 12.79V18.379H114.965V12.8645C114.965 11.8052 114.891 10.9102 114.745 10.1826C114.614 9.45358 114.296 8.8417 113.791 8.34399C113.286 7.84779 112.52 7.59817 111.491 7.59817C110.463 7.59817 109.608 7.8554 109.069 8.36834C108.547 8.88128 108.212 9.51141 108.066 10.2557C107.919 10.9848 107.845 11.8706 107.845 12.9132V18.3775H103.075V0H107.845V6.50685C109.084 5.09893 110.976 4.39574 113.521 4.39574Z" fill="white"/>
<path d="M129.892 4.24656C132.143 4.24656 134.158 4.64382 135.936 5.43834C137.714 6.23286 138.603 7.63164 138.603 9.63621V18.379H134.15L133.759 16.3181V16.1933C133.384 16.9543 132.519 17.551 131.165 17.9817C129.828 18.4125 128.368 18.6271 126.786 18.6271C125.513 18.6271 124.225 18.3622 122.921 17.8326C121.617 17.2861 120.963 16.1187 120.963 14.3303C120.963 12.5418 121.518 11.4992 122.627 10.9528C123.753 10.4064 124.96 10.1324 126.248 10.1324C128.744 10.1324 130.473 10.1157 131.434 10.0822C132.396 10.0319 133.024 9.94215 133.317 9.80973C133.627 9.67731 133.79 9.43682 133.805 9.08979V8.81734C133.789 8.23743 133.381 7.79146 132.582 7.47639C131.799 7.14458 130.894 6.9802 129.867 6.9802C128.757 6.9802 127.811 7.17046 127.029 7.55097C126.263 7.91475 125.879 8.48705 125.879 9.26482H121.109C121.109 7.98933 121.582 6.9802 122.527 6.23438C123.489 5.48857 124.63 4.97563 125.952 4.69405C127.291 4.39572 128.605 4.24656 129.892 4.24656ZM133.783 11.624C133 11.9878 131.801 12.1705 130.186 12.1705C129.093 12.1705 128.237 12.2116 127.617 12.2953C127.012 12.3775 126.564 12.5266 126.272 12.7428C125.994 12.9421 125.848 13.2389 125.831 13.6362C125.881 14.1826 126.158 14.5966 126.663 14.8782C127.185 15.1598 128.057 15.2998 129.281 15.2998C130.895 15.2998 132.045 14.9437 132.73 14.2313C133.432 13.519 133.783 12.6575 133.783 11.6484V11.624Z" fill="white"/>
<path d="M144.971 0H140.201V3.37747H144.971V0ZM144.971 18.379H140.201V4.09741H144.971V18.379Z" fill="white"/>
<path d="M157.1 4.39572C159.025 4.39572 160.526 5.04108 161.602 6.33331C162.678 7.62555 163.217 9.77776 163.217 12.7915V18.3805H158.446V12.866C158.446 11.8067 158.373 10.9117 158.226 10.1842C158.095 9.45508 157.778 8.84321 157.272 8.34549C156.766 7.8493 155.999 7.59968 154.973 7.59968C153.946 7.59968 153.088 7.84777 152.55 8.34549C152.028 8.82494 151.694 9.43834 151.547 10.1842C151.4 10.9132 151.326 11.8234 151.326 12.9163V18.3805H146.556V4.84321H151.326V6.58141C152.599 5.12479 154.523 4.39572 157.1 4.39572Z" fill="white"/>
<path d="M12.9456 32.4764C14.6577 32.4764 16.1419 32.5845 17.3982 32.7991C18.6546 33.0137 19.698 33.4779 20.5301 34.1903C21.3786 34.9026 21.8014 35.9543 21.8014 37.3455C21.8014 39.895 20.701 41.618 18.4987 42.5114C16.2963 43.4064 13.8256 43.8524 11.0851 43.8524C8.34456 43.8524 5.87388 43.3973 3.52612 42.4871C1.17687 41.5601 0.00299841 39.8052 0.00299841 37.2222L5.2622 37.172C5.2622 38.0822 5.60402 38.761 6.28916 39.2085C6.99078 39.656 7.74938 39.9376 8.56495 40.0533C9.397 40.1522 10.2935 40.2024 11.256 40.2024C12.7237 40.2024 13.9876 39.9878 15.0475 39.5571C16.1074 39.1263 16.6456 38.4307 16.6621 37.4703V37.446C16.6621 36.7336 16.1314 36.2785 15.0715 36.0807C14.028 35.8661 12.7642 35.758 11.28 35.758H9.76281C7.80635 35.758 6.14973 35.6591 4.79595 35.4597C3.44217 35.2451 2.30128 34.7641 1.37027 34.0198C0.457257 33.2572 0 32.1157 0 30.5921C0 26.4353 3.69404 24.3577 11.0821 24.3577C13.7087 24.3577 16.1464 24.8128 18.3967 25.723C20.6635 26.6332 21.7969 28.3897 21.7969 30.9893H16.5857C16.5857 30.0624 16.055 29.3577 14.995 28.8782C13.9351 28.3973 12.6458 28.1248 11.1301 28.0578C9.48246 28.0578 8.0807 28.2572 6.92182 28.6545C5.77943 29.0518 5.20973 29.6728 5.20973 30.5175C5.20973 31.8417 7.10172 32.5053 10.8857 32.5053L12.9456 32.4764Z" fill="white"/>
<path d="M40.9148 36.8234C40.8818 37.9985 40.5969 39.1172 40.0587 40.1766C39.5205 41.2359 38.7619 42.0974 37.7829 42.7595C36.804 43.4049 35.687 43.7276 34.4307 43.7276C31.6257 43.7276 29.5058 43.0563 28.0696 41.7154V48H23.2991V29.7443H27.5809L27.9227 31.5571C29.3574 30.1005 31.5268 29.3957 34.4307 29.446C35.687 29.446 36.7965 29.761 37.7574 30.3897C38.7364 31.0183 39.5025 31.8798 40.0572 32.9726C40.6119 34.0655 40.8968 35.2907 40.9133 36.6484V36.8234H40.9148ZM31.9615 40.7473C32.8266 40.7473 33.5597 40.548 34.1639 40.1507C34.783 39.7534 35.2478 39.2481 35.5581 38.6362C35.8849 38.0076 36.0559 37.3607 36.0723 36.6986C36.0394 35.4734 35.681 34.446 34.9959 33.6195C34.3108 32.7915 33.2988 32.3775 31.9615 32.3775C31.2104 32.3775 30.5343 32.5677 29.9316 32.9483C29.3439 33.3288 28.8882 33.8341 28.5613 34.4627C28.2345 35.0913 28.0726 35.7626 28.0726 36.4749V36.5251C28.0726 37.7671 28.4309 38.7854 29.149 39.5799C29.8656 40.3592 30.8041 40.7473 31.9615 40.7473Z" fill="white"/>
<path d="M51.2727 29.1735C52.9848 29.1735 54.526 29.4886 55.8963 30.1172C57.2665 30.7458 58.334 31.624 59.1016 32.7504C59.8841 33.86 60.2754 35.1096 60.2754 36.5007C60.2754 37.8919 59.8841 39.1248 59.1016 40.2511C58.3355 41.3607 57.2665 42.2298 55.8963 42.86C54.526 43.4886 52.9848 43.8036 51.2727 43.8036C49.5606 43.8036 48.0839 43.4886 46.6492 42.86C45.2144 42.2146 44.0646 41.3364 43.1995 40.2268C42.351 39.1004 41.9282 37.8584 41.9282 36.5007C41.9282 35.1431 42.3525 33.8843 43.1995 32.7747C44.0646 31.6484 45.2144 30.7717 46.6492 30.1415C48.0839 29.4962 49.6251 29.1735 51.2727 29.1735ZM51.2727 40.6727C52.4466 40.6727 53.4496 40.3166 54.2816 39.6043C55.1137 38.8919 55.529 37.8569 55.529 36.4992C55.529 35.1415 55.1137 34.0822 54.2816 33.3698C53.4496 32.6575 52.4466 32.3014 51.2727 32.3014C50.5216 32.3014 49.796 32.4581 49.0959 32.7732C48.4107 33.0715 47.8485 33.5342 47.4078 34.1644C46.967 34.793 46.7466 35.5723 46.7466 36.4992C46.7466 37.4262 46.967 38.1796 47.4078 38.8097C47.8485 39.4383 48.4107 39.9102 49.0959 40.2253C49.7975 40.5236 50.5231 40.6727 51.2727 40.6727Z" fill="white"/>
<path d="M66.2244 32.0046C67.4972 30.5967 69.4941 29.761 72.2182 29.4962V33.3714H69.1598C68.0339 33.3714 67.2678 33.7687 66.86 34.5632C66.4687 35.3577 66.2723 36.4338 66.2723 37.7915V43.2801H61.5019V29.7428H65.7596L66.2244 32.0046Z" fill="white"/>
<path d="M81.002 29.7443H83.5461V33.2222H81.002V43.2816H76.2315V33.2222H73.5644V29.7443H76.2315V26.8128L81.002 24.5023V29.7443Z" fill="white"/>
<path d="M93.2564 35.3333C93.7136 35.3333 94.0644 35.3242 94.3088 35.309L95.6056 35.2846C97.4646 35.2846 98.9743 35.5419 100.132 36.0548C101.289 36.551 101.869 37.5525 101.869 39.0594C101.869 41.0137 101.021 42.3044 99.3251 42.9346C97.6295 43.548 95.6551 43.8539 93.4048 43.8539C91.1545 43.8539 89.189 43.5145 87.3615 42.8356C85.5355 42.14 84.621 40.8158 84.621 38.8615L89.4409 38.8858C89.4409 39.7139 89.8322 40.2846 90.6148 40.5997C91.3973 40.898 92.3269 41.0472 93.4033 41.0472C94.7241 41.0472 95.6866 40.898 96.2908 40.5997C96.8934 40.3014 97.1963 39.8371 97.1963 39.2085C97.1963 38.5799 96.8455 38.207 96.1438 38.0411C95.4587 37.8585 94.823 37.7671 94.2353 37.7671H93.1589C91.6417 37.7671 90.2879 37.6926 89.0976 37.5434C87.9072 37.3775 86.8623 36.997 85.9657 36.4003C85.0692 35.7869 84.6195 34.8691 84.6195 33.6438C84.6195 31.8052 85.501 30.6058 87.261 30.0426C89.0211 29.4795 91.0525 29.1979 93.3523 29.1979C95.6521 29.1979 97.5036 29.5373 99.2487 30.2161C100.994 30.895 101.866 32.2116 101.866 34.1659L97.1198 34.1416C97.1198 33.2801 96.6716 32.7093 95.775 32.4277C94.8785 32.1461 94.0704 32.0061 93.3523 32.0061C90.7422 32.0061 89.4379 32.5358 89.4379 33.5951C89.4409 34.7199 90.7122 35.2999 93.2564 35.3333Z" fill="white"/>
<path d="M175.585 3.54338C175.736 3.17352 176.252 3.17352 176.404 3.54338L177.945 7.30594C178.008 7.46119 178.153 7.56773 178.318 7.58143L182.32 7.90716C182.712 7.93912 182.871 8.43684 182.571 8.69711L179.523 11.3486C179.398 11.4581 179.342 11.6301 179.381 11.7945L180.312 15.758C180.404 16.1476 179.987 16.4551 179.651 16.2466L176.225 14.1233C176.083 14.035 175.904 14.035 175.763 14.1233L172.338 16.2466C172.002 16.4551 171.585 16.1476 171.677 15.758L172.608 11.7945C172.645 11.6301 172.591 11.4581 172.464 11.3486L169.416 8.69711C169.118 8.43684 169.276 7.93912 169.669 7.90716L173.671 7.58143C173.836 7.56773 173.979 7.46119 174.044 7.30594L175.585 3.54338Z" fill="white"/>
<path d="M114.496 24.8447H181.804C185.778 24.8447 189 28.1157 189 32.1507V40.3896C189 44.4246 185.778 47.6956 181.804 47.6956H114.496C110.521 47.6956 107.299 44.4246 107.299 40.3896V32.1507C107.299 28.1157 110.521 24.8447 114.496 24.8447Z" fill="#FFD619"/>
<path d="M114.389 40.5737L116.039 31.9664H121.743L121.451 33.5037H117.385L117.022 35.385H120.712L120.419 36.8842H116.73L116.316 39.0364H120.382L120.089 40.5737H114.389ZM124.587 40.6848C122.463 40.6848 121.128 39.3561 121.578 37.009L121.857 35.5342C122.307 33.1856 123.798 31.8584 126.031 31.8584C128.142 31.8584 129.452 33.0638 129.113 35.1536H127.474C127.644 34.0593 127.074 33.4565 125.848 33.4565C124.621 33.4565 123.749 34.1704 123.493 35.5357L123.214 37.0106C122.96 38.3759 123.481 39.1491 124.755 39.1491C125.956 39.1491 126.756 38.5342 127.023 37.49H128.662C128.239 39.5281 126.867 40.6848 124.586 40.6848H124.587ZM132.242 40.6848C130.118 40.6848 128.845 39.3561 129.293 37.009L129.572 35.5342C130.02 33.1856 131.416 31.8584 133.807 31.8584C135.943 31.8584 137.204 33.1871 136.756 35.5342L136.477 37.009C136.029 39.3561 134.62 40.6848 132.242 40.6848ZM130.93 37.0075C130.663 38.4093 131.27 39.146 132.471 39.146C133.672 39.146 134.57 38.4078 134.839 37.0075L135.117 35.5326C135.384 34.1308 134.777 33.4535 133.564 33.4535C132.351 33.4535 131.476 34.1293 131.209 35.5326L130.93 37.0075ZM139.823 40.6848C137.761 40.6848 136.57 39.5524 136.862 37.8081H138.489C138.38 38.6574 138.903 39.1475 139.946 39.1475C141.063 39.1475 141.804 38.6681 141.804 37.9558C141.804 37.5128 141.464 37.2541 140.931 37.1065L139.548 36.7138C138.552 36.4307 137.775 35.8157 137.775 34.7457C137.775 33.146 139.014 31.8568 141.161 31.8568C143.102 31.8568 144.267 33.0745 143.975 34.5996H142.348C142.396 33.9238 141.96 33.3941 141.026 33.3941C140.006 33.3941 139.447 33.8842 139.447 34.4748C139.447 34.8675 139.726 35.0532 140.309 35.2252L141.753 35.6437C142.954 35.9893 143.489 36.7275 143.489 37.5996C143.49 39.3454 142.18 40.6848 139.825 40.6848H139.823ZM145.912 40.5737L146.663 36.6392H145.934L144.684 31.9664H146.37L147.462 36.3317L150.217 31.9664H152.073L149.04 36.6392H148.3L147.547 40.5737H145.909H145.912ZM153.977 40.6848C151.914 40.6848 150.724 39.5524 151.016 37.8081H152.643C152.534 38.6574 153.055 39.1475 154.1 39.1475C155.217 39.1475 155.956 38.6681 155.956 37.9558C155.956 37.5128 155.616 37.2541 155.082 37.1065L153.699 36.7138C152.705 36.4307 151.928 35.8157 151.928 34.7457C151.928 33.146 153.165 31.8568 155.313 31.8568C157.255 31.8568 158.42 33.0745 158.127 34.5996H156.502C156.551 33.9238 156.114 33.3941 155.18 33.3941C154.159 33.3941 153.603 33.8842 153.603 34.4748C153.603 34.8675 153.881 35.0532 154.463 35.2252L155.907 35.6437C157.108 35.9893 157.643 36.7275 157.643 37.5996C157.641 39.3454 156.33 40.6848 153.977 40.6848ZM160.201 40.5737L161.559 33.5022H159.097L159.387 31.9649H165.965L165.673 33.5022H163.197L161.838 40.5737H160.201ZM165.464 40.5737L167.113 31.9664H172.818L172.526 33.5037H168.461L168.095 35.385H171.785L171.494 36.8842H167.806L167.392 39.0364H171.458L171.166 40.5737H165.464ZM175.382 40.5737L175.612 32.2739L174.022 40.5737H172.446L174.095 31.9664H177.118L176.984 40.2663L180.029 31.9664H183.051L181.401 40.5737H179.824L181.413 32.2739L178.464 40.5737H175.382Z" fill="black"/>
</g>
<defs>
<clipPath id="clip0_8150_48826">
<rect width="189" height="48" fill="white"/>
</clipPath>
</defs>
</svg>
